<?xml version="1.0" standalone="no"?><!DOCTYPE svg PUBLIC "-//W3C//DTD SVG 1.1//EN" "http://www.w3.org/Graphics/SVG/1.1/DTD/svg11.dtd"><svg t="1731504998892" class="icon" viewBox="0 0 1024 1024" version="1.1" xmlns="http://www.w3.org/2000/svg" p-id="14848" xmlns:xlink="http://www.w3.org/1999/xlink" width="200" height="200"><path d="M921.6 455.68H102.4a46.08 46.08 0 0 1 0-92.16h716.8l-165.888-178.688a46.08 46.08 0 1 1 68.096-61.952l233.984 256A46.08 46.08 0 0 1 921.6 455.68zM336.384 942.08a46.08 46.08 0 0 1-33.792-14.848l-233.984-256A46.08 46.08 0 0 1 102.4 593.92h819.2a46.08 46.08 0 1 1 0 92.16H204.8l163.328 178.688a46.08 46.08 0 0 1-33.792 77.312z" p-id="14849" fill="#1afa29"></path></svg>