<?xml version="1.0" standalone="no"?><!DOCTYPE svg PUBLIC "-//W3C//DTD SVG 1.1//EN" "http://www.w3.org/Graphics/SVG/1.1/DTD/svg11.dtd"><svg t="1731931152566" class="icon" viewBox="0 0 1024 1024" version="1.1" xmlns="http://www.w3.org/2000/svg" p-id="5997" xmlns:xlink="http://www.w3.org/1999/xlink" width="200" height="200"><path d="M763.58272 0a99.904 99.904 0 0 1 96 96v10.112l3.968 478.336c123.456 113.536 154.944 144.384 160.768 175.168v19.2a64.448 64.448 0 0 1-16 37.504l-133.184 139.52c-53.696 56.32-64.832 65.472-79.04 67.84h-21.568a62.912 62.912 0 0 1-30.208-15.872l-48.384-39.488-14.656-11.52-174.528 2.88c-164.288 2.432-195.392 0-212.672-15.872l-2.688-5.76-201.152-170.816C31.16672 719.104 16.06272 699.84 9.85472 686.4l-5.312-15.424A105.792 105.792 0 0 1 14.33472 587.264a107.328 107.328 0 0 1 97.216-48.128 124.416 124.416 0 0 1 52.416 11.52l-5.76-446.528A102.4 102.4 0 0 1 247.23072 0h516.416z m-119.872 565.44H455.87072c-32 0-44.416 16.832-44.416 41.856a50.752 50.752 0 0 0 39.104 43.776l11.968 2.432 73.28 11.52a31.616 31.616 0 0 1 21.12 13.632 36.864 36.864 0 0 1 5.952 25.6 32 32 0 0 1-13.312 23.552 125.568 125.568 0 0 1-21.312 13.504 30.016 30.016 0 0 1-14.208 3.84H317.82272l-11.52-2.432a188.928 188.928 0 0 1-44.416-30.784l-28.864-24.512c-60.416-52.928-94.592-74.56-118.976-74.56a54.08 54.08 0 0 0-44.416 13.952 32.576 32.576 0 0 0 0 29.376 1538.368 1538.368 0 0 0 122.112 111.168l133.184 111.616 11.072 9.6h154.048l200.256-3.84 13.312 2.88a231.744 231.744 0 0 1 44.416 30.784l18.624 15.424 22.656 18.752 11.52-11.072c6.4-5.76 13.312-13.504 23.552-24.064l138.112-144.384-9.792-11.072a1629.824 1629.824 0 0 0-79.04-77.952l-49.28-47.168a264.832 264.832 0 0 0-177.6-71.68z m119.872-495.616H257.40672a33.216 33.216 0 0 0-32 28.864v6.4l3.584 486.976v2.88l31.552 25.6 50.176 42.368 16 12.8h44.608l-4.416-4.352a117.952 117.952 0 0 1-20.416-54.4v-9.6a106.56 106.56 0 0 1 99.904-112.128h198.4a317.888 317.888 0 0 1 155.392 40.896l-4.032-433.088a33.984 33.984 0 0 0-26.624-34.624z m-117.056 181.376a35.264 35.264 0 0 1 5.76 69.312H387.07072a33.28 33.28 0 0 1-32.384-34.176 35.072 35.072 0 0 1 25.6-34.624h266.24z" fill="#1afa29" p-id="5998"></path></svg>